<svg xmlns="http://www.w3.org/2000/svg" width="68" height="76" viewBox="0 0 68 76" fill="none">
  <path d="M68 0H0L6 68L34 76L62 68L68 0Z" fill="#0277BD"/>
  <path d="M34 6V69.8L56.4 63.4L61.4 6H34Z" fill="#039BE5"/>
  <path d="M52.2 16H34V24H43.8L43.2 32H34V40H42.8L42.2 49L34 51.8V60.2L49.8 55L51.2 32L52.2 16Z" fill="white"/>
  <path d="M33.9996 16V24H16.1996L15.5996 16H33.9996ZM24.7996 32L25.1996 40H33.9996V32H24.7996ZM25.5996 44H17.5996L18.1996 55L33.9996 60.2V51.8L25.7996 49L25.5996 44Z" fill="#EEEEEE"/>
</svg>