<svg xmlns="http://www.w3.org/2000/svg" width="54" height="74" viewBox="0 0 54 74" fill="none">
  <path d="M35.0427 26.7191L27.65 33.6076L20.7877 19.7496L24.3327 11.7815C25.2287 10.1921 26.6941 10.1711 27.5901 11.7815L35.0427 26.7191Z" fill="#FFA000"/>
  <path d="M27.653 33.6045L0 59.3442L20.7907 19.7495L27.653 33.6045Z" fill="#F57F17"/>
  <path d="M43.1486 16.1833C44.4731 14.9208 45.8366 15.3466 46.1812 17.14L53.3702 58.9959L29.5259 73.3217C28.6898 73.7895 26.4723 73.9725 26.4723 73.9725C26.4723 73.9725 24.4556 73.7266 23.6824 73.3007L0 59.3438L43.1486 16.1833Z" fill="#FFCA28"/>
  <path d="M20.7907 19.7494L0 59.3441L9.26561 1.47096C9.61322 -0.322395 10.6291 -0.505329 11.5461 1.0841L20.7907 19.7494Z" fill="#FFA000"/>
</svg>