<svg xmlns="http://www.w3.org/2000/svg" width="72" height="69" viewBox="0 0 72 69" fill="none">
  <path d="M35.9955 0C16.119 0 2.07741e-05 15.8374 2.07741e-05 35.3744C-0.00810001 42.789 2.36483 50.0187 6.78346 56.0416C11.2021 62.0645 17.4429 66.576 24.624 68.9386C26.424 69.2646 27.081 68.1723 27.081 67.2342C27.081 66.393 27.0495 64.1689 27.0315 61.2181C17.019 63.3541 14.904 56.4748 14.904 56.4748C13.2705 52.3877 10.908 51.2999 10.908 51.2999C7.63652 49.1066 11.151 49.1507 11.151 49.1507C14.7645 49.4017 16.6635 52.7973 16.6635 52.7973C19.8765 58.2013 25.092 56.6422 27.144 55.7349C27.468 53.4491 28.3995 51.8901 29.43 51.0048C21.438 50.1108 13.032 47.0763 13.032 33.5246C13.032 29.6622 14.436 26.5044 16.74 24.0292C16.3665 23.1352 15.1335 19.5369 17.091 14.6703C17.091 14.6703 20.115 13.719 26.991 18.295C29.9284 17.5093 32.9594 17.1094 36.0045 17.1058C39.0497 17.1118 42.0807 17.5131 45.018 18.2994C51.8895 13.7234 54.909 14.6747 54.909 14.6747C56.871 19.5458 55.638 23.1396 55.269 24.0336C57.5775 26.5088 58.968 29.6666 58.968 33.529C58.968 47.1159 50.553 50.1064 42.534 50.9828C43.8255 52.075 44.9775 54.2331 44.9775 57.5318C44.9775 62.2619 44.9325 66.0759 44.9325 67.2342C44.9325 68.1811 45.5805 69.2822 47.4075 68.9342C54.5816 66.566 60.8147 62.0528 65.2272 56.0313C69.6396 50.0099 72.0087 42.7843 72 35.3744C72 15.8374 55.881 0 35.9955 0Z" fill="black"/>
</svg>