<svg xmlns="http://www.w3.org/2000/svg" width="76" height="76" viewBox="0 0 76 76" fill="none">
  <path d="M0 75.5V0H75.5V75.5H0Z" fill="#FFD600"/>
  <path d="M49.3643 56.514C50.8156 58.8712 52.3927 61.1299 55.7335 61.1299C58.5396 61.1299 60.0119 59.7353 60.0119 57.8058C60.0119 55.4968 58.4893 54.6768 55.4022 53.3325L53.7097 52.611C48.8253 50.539 45.5767 47.9426 45.5767 42.4584C45.5767 37.4041 49.4461 33.5578 55.4924 33.5578C59.798 33.5578 62.8914 35.0489 65.1228 38.9539L59.8504 42.3242C58.6906 40.2521 57.4365 39.4363 55.4924 39.4363C53.5084 39.4363 52.2522 40.6883 52.2522 42.3242C52.2522 44.3459 53.5105 45.1638 56.4151 46.4158L58.1076 47.1373C63.8645 49.5889 67.111 52.093 67.111 57.722C67.111 63.7871 62.3209 67.1112 55.8908 67.1112C49.6013 67.1112 46.0297 63.9549 44.0415 60.0478L49.3643 56.514ZM25.0659 56.6859C26.1271 58.586 27.7398 60.0478 30.0594 60.0478C32.2782 60.0478 33.5554 59.1711 33.5554 55.7632V33.5557H40.5455V56.8369C40.5455 63.8983 36.4496 67.1112 30.4683 67.1112C25.0638 67.1112 21.1629 63.4495 19.5732 60.0478L25.0659 56.6859Z" fill="#000001"/>
</svg>