<svg xmlns="http://www.w3.org/2000/svg" width="73" height="50" viewBox="0 0 73 50" fill="none">
  <path d="M29.6307 32.7209C28.4888 38.9378 26.9831 43.4607 25.1139 46.2707C23.6572 48.4427 22.0617 49.5286 20.3243 49.5286C19.8607 49.5286 19.2902 49.3886 18.6119 49.1106V47.6107C18.9425 47.6607 19.3312 47.6857 19.7778 47.6857C20.588 47.6857 21.2414 47.4617 21.739 47.0127C22.3344 46.4657 22.6321 45.8517 22.6321 45.1707C22.6321 44.7057 22.3994 43.7507 21.9368 42.3068L18.8596 32.7169H21.6141L23.8221 39.8898C24.3186 41.5178 24.5254 42.6548 24.4425 43.3027C25.6514 40.0648 26.4946 36.5369 26.9741 32.7229H29.6297M17.4709 45.1227H14.6675C14.5686 40.3728 14.2958 35.9079 13.8482 31.7229H13.8253L9.5562 45.1227H7.42016L3.17707 31.7229H3.1521C2.83739 35.7409 2.63957 40.2058 2.55664 45.1227H0C0.164848 39.1448 0.579466 33.5429 1.23986 28.313H4.71466L8.75993 40.6628H8.78491L12.8552 28.313H16.1801C16.9074 34.4389 17.338 40.0428 17.4689 45.1227" fill="#00758F"/>
  <path d="M66.9562 45.1203H58.9905V28.3106H61.671V43.0503H66.9562V45.1183M46.9246 41.7554C46.2452 40.6594 45.9065 38.9014 45.9065 36.4765C45.9065 32.2435 47.1894 30.1256 49.753 30.1256C51.0938 30.1256 52.0779 30.6326 52.7063 31.6445C53.3837 32.7405 53.7233 34.4845 53.7233 36.8754C53.7233 41.1424 52.4405 43.2773 49.8769 43.2773C48.5371 43.2773 47.552 42.7713 46.9246 41.7574M56.9004 45.5253L53.8212 44.0013C54.095 43.7753 54.3558 43.5313 54.5905 43.2513C55.8993 41.7084 56.5527 39.4254 56.5527 36.4025C56.5527 30.8405 54.3767 28.0586 50.0257 28.0586C47.8917 28.0586 46.2282 28.7636 45.0373 30.1766C43.7285 31.7205 43.0762 33.9965 43.0762 37.0004C43.0762 39.9554 43.6556 42.1234 44.8126 43.5003C45.8676 44.7453 47.4631 45.3683 49.6001 45.3683C50.3974 45.3683 51.1287 45.2703 51.7931 45.0733L55.8024 47.4153L56.8954 45.5253M41.9092 40.4604C41.9092 41.8864 41.3877 43.0563 40.3467 43.9723C39.3056 44.8833 37.9059 45.3413 36.1545 45.3413C34.516 45.3413 32.9275 44.8143 31.3889 43.7713L32.1093 42.3274C33.433 42.9913 34.6309 43.3223 35.7059 43.3223C36.715 43.3223 37.5043 43.0973 38.0758 42.6524C38.6452 42.2034 38.9879 41.5784 38.9879 40.7854C38.9879 39.7874 38.2936 38.9344 37.0217 38.2184C35.8431 37.5602 34.6688 36.8942 33.499 36.2205C32.2271 35.2885 31.5887 34.2895 31.5887 32.6435C31.5887 31.2815 32.0643 30.1806 33.0144 29.3436C33.9665 28.5036 35.1954 28.0836 36.7 28.0836C38.2556 28.0836 39.6693 28.5006 40.9431 29.3316L40.2957 30.7745C39.2067 30.3106 38.1317 30.0776 37.0717 30.0776C36.2125 30.0776 35.5491 30.2856 35.0875 30.7015C34.6229 31.1145 34.3362 31.6465 34.3362 32.2945C34.3362 33.2905 35.0455 34.1545 36.3533 34.8845C37.5422 35.5315 39.949 36.9084 39.949 36.9084C41.2578 37.8384 41.9102 38.8294 41.9102 40.4624M68.8644 45.1203H69.309V43.4103H69.8894V43.0603H68.2609V43.4103H68.8644V45.1203ZM72.2443 45.1203H72.6629V43.0603H72.0335L71.5209 44.4643L70.9625 43.0603H70.356V45.1203H70.7527V43.5523H70.7746L71.3591 45.1203H71.6608L72.2443 43.5523V45.1203Z" fill="#F29111"/>
  <path d="M44.6767 0.0020003C43.9684 -0.00799954 43.351 0.258996 43.0322 1.04398C42.4857 2.36496 43.8415 3.66394 44.3081 4.33493C44.6518 4.80192 45.0973 5.33091 45.3391 5.8579C45.481 6.2029 45.522 6.56989 45.6638 6.93489C45.9875 7.82887 46.2902 8.82385 46.7159 9.65784C46.9376 10.0848 47.1804 10.5318 47.4642 10.9158C47.627 11.1408 47.9098 11.2408 47.9707 11.6078C47.688 12.0128 47.666 12.6228 47.5051 13.1318C46.7758 15.4267 47.0595 18.2707 48.0916 19.9567C48.4153 20.4637 49.1846 21.5816 50.2176 21.1546C51.1288 20.7897 50.927 19.6317 51.1887 18.6167C51.2497 18.3707 51.2087 18.2097 51.3306 18.0467V18.0887C51.6133 18.6567 51.8981 19.2037 52.1608 19.7747C52.7893 20.7687 53.8812 21.8046 54.7924 22.4946C55.277 22.8616 55.6616 23.4906 56.2691 23.7146V23.6526H56.2291C56.1072 23.4706 55.9254 23.3886 55.7635 23.2476C55.3989 22.8816 54.9952 22.4346 54.7115 22.0276C53.8623 20.8917 53.112 19.6317 52.4456 18.3317C52.1209 17.7007 51.8381 17.0107 51.5744 16.3817C51.4535 16.1387 51.4535 15.7717 51.2507 15.6507C50.946 16.0967 50.5014 16.4837 50.2796 17.0297C49.8949 17.9047 49.855 18.9807 49.7121 20.0977C49.6322 20.1187 49.6721 20.0977 49.6322 20.1377C48.9848 19.9757 48.762 19.3057 48.5182 18.7377C47.9108 17.2947 47.8088 14.9778 48.3364 13.3138C48.4762 12.8878 49.0857 11.5478 48.8419 11.1408C48.72 10.7528 48.3154 10.5308 48.0926 10.2258C47.8105 9.81593 47.567 9.38074 47.3653 8.92585C46.8797 7.78887 46.6359 6.52889 46.1104 5.39191C45.8676 4.86192 45.441 4.31493 45.0983 3.82794C44.7127 3.27895 44.2891 2.89295 43.9844 2.24396C43.8845 2.01997 43.7426 1.65397 43.9044 1.41098C43.9434 1.24798 44.0253 1.18698 44.1882 1.14598C44.4489 0.922985 45.1993 1.20598 45.462 1.32798C46.2113 1.63197 46.8387 1.91797 47.4652 2.34296C47.7479 2.54696 48.0516 2.93295 48.4163 3.03495H48.8419C49.4893 3.17695 50.2186 3.07495 50.8261 3.25795C51.8981 3.60294 52.8692 4.11093 53.7404 4.65892C56.4216 6.37489 58.6001 8.77204 60.0536 11.6058C60.2973 12.0728 60.3992 12.4998 60.621 12.9858C61.0466 13.9838 61.5732 14.9988 61.9978 15.9727C62.4224 16.9277 62.828 17.9027 63.4364 18.6947C63.7382 19.1207 64.9531 19.3447 65.4995 19.5677C65.9042 19.7497 66.5316 19.9127 66.8963 20.1357C67.5856 20.5617 68.271 21.0497 68.9194 21.5176C69.2431 21.7616 70.2542 22.2686 70.3151 22.6756C68.6966 22.6356 67.4418 22.7976 66.3887 23.2456C66.086 23.3666 65.6005 23.3666 65.5595 23.7526C65.7223 23.9146 65.7413 24.1786 65.8842 24.4026C66.127 24.8096 66.5506 25.3566 66.9362 25.6426C67.3618 25.9676 67.7864 26.2916 68.232 26.5756C69.0213 27.0656 69.9115 27.3485 70.6798 27.8355C71.1264 28.1195 71.5709 28.4855 72.0165 28.7905C72.2383 28.9525 72.3792 29.2175 72.6639 29.3175V29.2555C72.5211 29.0735 72.4811 28.8095 72.3402 28.6055C72.1384 28.4035 71.9356 28.2205 71.7328 28.0175C71.1399 27.2309 70.4303 26.5396 69.6287 25.9676C68.9803 25.5186 67.5626 24.9086 67.3009 24.1596L67.2599 24.1186C67.7045 24.0776 68.232 23.9146 68.6576 23.7916C69.344 23.6086 69.9724 23.6496 70.6808 23.4676C71.0045 23.3856 71.3282 23.2836 71.6539 23.1846V22.9996C71.2872 22.6356 71.0255 22.1466 70.6418 21.8016C69.6108 20.9087 68.4758 20.0357 67.3019 19.3027C66.6725 18.8967 65.8632 18.6337 65.1958 18.2877C64.9541 18.1657 64.5494 18.1057 64.4066 17.9017C64.0429 17.4547 63.8391 16.8667 63.5773 16.3377C62.979 15.1812 62.4254 14.002 61.9178 12.8028C61.5532 12.0108 61.3304 11.2198 60.8858 10.4878C58.7997 7.03388 56.5338 4.94292 53.053 2.89095C52.3037 2.46396 51.4135 2.28096 50.4634 2.05797C49.9559 2.03697 49.4513 1.99797 48.9448 1.97797C48.6201 1.83397 48.2954 1.44798 48.0127 1.26498C47.2913 0.807987 45.8586 0.0179997 44.6787 0L44.6767 0.0020003ZM49.6701 5.02292C49.3264 5.02292 49.0847 5.06492 48.8409 5.12492V5.16491H48.8799C49.0427 5.48991 49.3264 5.71491 49.5273 5.9989C49.6901 6.3239 49.832 6.64789 49.9938 6.97288L50.0338 6.93289C50.3185 6.72989 50.4604 6.40489 50.4604 5.9169C50.3375 5.7739 50.3185 5.63291 50.2166 5.48991C50.0957 5.28791 49.832 5.18591 49.6701 5.02292Z" fill="#00758F"/>
</svg>