<svg xmlns="http://www.w3.org/2000/svg" width="73" height="45" viewBox="0 0 73 45" fill="none">
  <path d="M36.1039 44.642C35.8565 44.642 35.6255 44.5761 35.4109 44.4607L33.2164 43.159C32.8863 42.9776 33.0513 42.9117 33.1504 42.8788C33.5959 42.7305 33.6784 42.6974 34.1404 42.4339C34.1899 42.4009 34.256 42.4174 34.3054 42.4503L35.9886 43.4555C36.0545 43.4885 36.1371 43.4885 36.1865 43.4555L42.7703 39.6489C42.8363 39.6159 42.8694 39.5499 42.8694 39.4676V31.8709C42.8694 31.7883 42.8363 31.7226 42.7703 31.6895L36.1865 27.8994C36.1205 27.8663 36.038 27.8663 35.9886 27.8994L29.4047 31.6895C29.3387 31.7224 29.3056 31.8048 29.3056 31.8707V39.4675C29.3056 39.5335 29.3387 39.6158 29.4047 39.6489L31.2033 40.687C32.1769 41.1813 32.7874 40.6046 32.7874 40.0279V32.5299C32.7874 32.4311 32.8699 32.3321 32.9854 32.3321H33.8269C33.926 32.3321 34.0249 32.4145 34.0249 32.5299V40.0279C34.0249 41.3296 33.3153 42.0877 32.0778 42.0877C31.6983 42.0877 31.4013 42.0877 30.5597 41.6757L28.8272 40.687C28.3981 40.4399 28.1342 39.9784 28.1342 39.484V31.8873C28.1342 31.3929 28.3981 30.9314 28.8272 30.6843L35.4109 26.8776C35.8235 26.6469 36.3846 26.6469 36.7971 26.8776L43.3808 30.6843C43.8099 30.9314 44.074 31.3929 44.074 31.8873V39.484C44.074 39.9784 43.8099 40.4399 43.3808 40.687L36.7971 44.4937C36.5825 44.5926 36.3349 44.642 36.1039 44.642ZM38.1336 39.4182C35.246 39.4182 34.6519 38.0999 34.6519 36.9793C34.6519 36.8803 34.7345 36.7815 34.85 36.7815H35.708C35.807 36.7815 35.8895 36.8474 35.8895 36.9464C36.0216 37.8197 36.401 38.2481 38.1501 38.2481C39.5361 38.2481 40.1304 37.935 40.1304 37.1935C40.1304 36.765 39.9652 36.452 37.8036 36.2377C36.005 36.0564 34.883 35.661 34.883 34.2273C34.883 32.8925 36.0051 32.1014 37.8861 32.1014C39.9982 32.1014 41.0378 32.8266 41.1699 34.4084C41.1699 34.458 41.1533 34.5073 41.1203 34.5568C41.0872 34.5898 41.0378 34.6227 40.9883 34.6227H40.1302C40.0477 34.6227 39.9652 34.5568 39.9488 34.4744C39.7507 33.5682 39.2392 33.2714 37.8861 33.2714C36.3681 33.2714 36.1865 33.7989 36.1865 34.1942C36.1865 34.6722 36.401 34.8205 38.4471 35.0841C40.4767 35.3479 41.4339 35.7269 41.4339 37.144C41.4173 38.5942 40.2293 39.4182 38.1336 39.4182Z" fill="#539E43"/>
  <path d="M15.6759 14.9301C15.6759 14.6336 15.5108 14.3532 15.2468 14.205L8.25047 10.1841C8.13482 10.1181 8.0029 10.0852 7.87098 10.0686H7.80488C7.67296 10.0686 7.54089 10.1181 7.42539 10.1841L0.429028 14.205C0.164901 14.3532 0 14.6334 0 14.9301L0.0165615 25.7403C0.0165615 25.8886 0.0990832 26.0369 0.231004 26.1029C0.363067 26.1853 0.527968 26.1853 0.643613 26.1029L4.80183 23.7299C5.06581 23.5816 5.23085 23.3014 5.23085 23.0049V17.9458C5.23085 17.6492 5.39575 17.369 5.65988 17.2207L7.42539 16.199C7.55745 16.1166 7.70594 16.0835 7.85442 16.0835C8.0029 16.0835 8.15138 16.1166 8.26703 16.199L10.0325 17.2207C10.2967 17.369 10.4616 17.649 10.4616 17.9458V23.0049C10.4616 23.3014 10.6266 23.5816 10.8906 23.7299L15.0488 26.1029C15.1809 26.1853 15.3458 26.1853 15.4778 26.1029C15.6099 26.0369 15.6924 25.8886 15.6924 25.7403L15.6759 14.9301ZM49.3046 0.0495118C49.1727 -0.0165039 49.0077 -0.0165039 48.892 0.0495118C48.7601 0.131924 48.6776 0.263671 48.6776 0.411957V11.1235C48.6776 11.2223 48.6282 11.3211 48.5291 11.3871C48.4301 11.4364 48.3311 11.4364 48.2321 11.3871L46.483 10.3819C46.3548 10.309 46.2098 10.2706 46.0622 10.2706C45.9147 10.2706 45.7696 10.309 45.6414 10.3819L38.645 14.4193C38.3811 14.5675 38.216 14.8477 38.216 15.1443V23.2025C38.216 23.4991 38.3811 23.7794 38.645 23.9277L45.6414 27.965C45.7696 28.0379 45.9147 28.0763 46.0622 28.0763C46.2098 28.0763 46.3548 28.0379 46.483 27.965L53.4794 23.9277C53.7434 23.7794 53.9084 23.4992 53.9084 23.2025V3.11461C53.9084 2.8015 53.7434 2.52146 53.4794 2.37304L49.3046 0.0495118ZM48.6612 20.5495C48.6612 20.6319 48.6282 20.6977 48.5621 20.7307L46.1695 22.1149C46.1361 22.1312 46.0994 22.1396 46.0622 22.1396C46.025 22.1396 45.9883 22.1312 45.9549 22.1149L43.5624 20.7307C43.4963 20.6977 43.4633 20.6153 43.4633 20.5495V17.7809C43.4633 17.6985 43.4963 17.6326 43.5624 17.5997L45.9549 16.2154C45.9883 16.1991 46.025 16.1906 46.0622 16.1906C46.0994 16.1906 46.1361 16.1991 46.1695 16.2154L48.5621 17.5997C48.6282 17.6325 48.6612 17.7151 48.6612 17.7809V20.5495ZM72.5873 17.7151C72.8515 17.5668 72.9999 17.2866 72.9999 16.9899V15.0289C72.9999 14.7324 72.8349 14.4522 72.5873 14.3039L65.6405 10.2831C65.5123 10.2102 65.3673 10.1719 65.2198 10.1719C65.0722 10.1719 64.9272 10.2102 64.799 10.2831L57.8027 14.3203C57.5385 14.4686 57.3736 14.7488 57.3736 15.0455V23.1037C57.3736 23.4003 57.5385 23.6804 57.8027 23.8287L64.7495 27.7837C65.0136 27.932 65.327 27.932 65.5745 27.7837L69.7822 25.4439C69.9142 25.3779 69.9967 25.2296 69.9967 25.0813C69.9967 24.933 69.9142 24.7847 69.7822 24.7187L62.7528 20.6813C62.6209 20.5991 62.5384 20.4672 62.5384 20.3189V17.7976C62.5384 17.6493 62.6209 17.501 62.7528 17.435L64.9475 16.1826C65.0117 16.1422 65.0861 16.1208 65.162 16.1208C65.2379 16.1208 65.3123 16.1422 65.3765 16.1826L67.5711 17.435C67.7031 17.5174 67.7856 17.6492 67.7856 17.7976V19.7751C67.7856 19.9234 67.8682 20.0717 68.0001 20.1375C68.1322 20.2199 68.2971 20.2199 68.4291 20.1375L72.5873 17.7151Z" fill="#333333"/>
  <path d="M65.1126 17.3362C65.1371 17.3201 65.1658 17.3115 65.1951 17.3115C65.2244 17.3115 65.2531 17.3201 65.2775 17.3362L66.6142 18.1107C66.6637 18.1435 66.6967 18.193 66.6967 18.259V19.808C66.6967 19.8739 66.6637 19.9234 66.6142 19.9563L65.2775 20.7308C65.2531 20.7469 65.2244 20.7555 65.1951 20.7555C65.1658 20.7555 65.1371 20.7469 65.1126 20.7308L63.776 19.9563C63.7265 19.9234 63.6935 19.8739 63.6935 19.808V18.259C63.6935 18.193 63.7265 18.1435 63.776 18.1107L65.1126 17.3362Z" fill="#539E43"/>
  <path d="M27.375 10.3158C27.2468 10.2429 27.1018 10.2046 26.9542 10.2046C26.8067 10.2046 26.6617 10.2429 26.5335 10.3158L19.5867 14.32C19.3226 14.4682 19.1741 14.7484 19.1741 15.045V23.0704C19.1741 23.367 19.3391 23.6471 19.5867 23.7954L26.5335 27.7998C26.6617 27.8727 26.8067 27.9111 26.9542 27.9111C27.1018 27.9111 27.2468 27.8727 27.375 27.7998L34.322 23.7954C34.5859 23.6471 34.7346 23.367 34.7346 23.0704V15.0451C34.7346 14.7486 34.5694 14.4684 34.322 14.3201L27.375 10.3158Z" fill="url(#paint0_linear_122_252)"/>
  <mask id="mask0_122_252" style="mask-type:luminance" maskUnits="userSpaceOnUse" x="19" y="10" width="16" height="18">
    <path d="M27.375 10.3158C27.2468 10.2429 27.1018 10.2046 26.9542 10.2046C26.8067 10.2046 26.6617 10.2429 26.5335 10.3158L19.5867 14.32C19.3226 14.4682 19.1741 14.7484 19.1741 15.045V23.0704C19.1741 23.367 19.3391 23.6471 19.5867 23.7954L26.5335 27.7998C26.6617 27.8727 26.8067 27.9111 26.9542 27.9111C27.1018 27.9111 27.2468 27.8727 27.375 27.7998L34.322 23.7954C34.5859 23.6471 34.7346 23.367 34.7346 23.0704V15.0451C34.7346 14.7486 34.5694 14.4684 34.322 14.3201L27.375 10.3158Z" fill="white"/>
  </mask>
  <g mask="url(#mask0_122_252)">
    <path d="M34.3382 14.3201L27.3584 10.3158C27.2898 10.2812 27.2179 10.2536 27.1438 10.2334L19.3224 23.6145C19.3872 23.6935 19.4654 23.7604 19.5535 23.8122L26.5333 27.8167C26.7314 27.932 26.9624 27.965 27.1768 27.8989L34.5198 14.4851C34.4703 14.4192 34.4042 14.3694 34.3382 14.3201Z" fill="url(#paint1_linear_122_252)"/>
  </g>
  <mask id="mask1_122_252" style="mask-type:luminance" maskUnits="userSpaceOnUse" x="19" y="10" width="16" height="18">
    <path d="M27.375 10.3158C27.2468 10.2429 27.1018 10.2046 26.9542 10.2046C26.8067 10.2046 26.6617 10.2429 26.5335 10.3158L19.5867 14.32C19.3226 14.4682 19.1741 14.7484 19.1741 15.045V23.0704C19.1741 23.367 19.3391 23.6471 19.5867 23.7954L26.5335 27.7998C26.6617 27.8727 26.8067 27.9111 26.9542 27.9111C27.1018 27.9111 27.2468 27.8727 27.375 27.7998L34.322 23.7954C34.5859 23.6471 34.7346 23.367 34.7346 23.0704V15.0451C34.7346 14.7486 34.5694 14.4684 34.322 14.3201L27.375 10.3158Z" fill="white"/>
  </mask>
  <g mask="url(#mask1_122_252)">
    <path fill-rule="evenodd" clip-rule="evenodd" d="M34.3548 23.7958C34.5529 23.6805 34.7013 23.4827 34.7674 23.2686L27.1108 10.2171C26.9127 10.1842 26.6981 10.2006 26.5168 10.316L19.5864 14.304L27.0612 27.9156C27.1699 27.8979 27.2755 27.8646 27.3747 27.8168L34.3547 23.796L34.3548 23.7958Z" fill="url(#paint2_linear_122_252)"/>
    <path fill-rule="evenodd" clip-rule="evenodd" d="M34.3548 23.7958L27.3914 27.8002C27.2931 27.8503 27.1872 27.8836 27.0779 27.899L27.2099 28.1462L34.9323 23.6806V23.5816L34.7343 23.252C34.7013 23.4827 34.5528 23.6804 34.3548 23.7958Z" fill="url(#paint3_linear_122_252)"/>
    <path fill-rule="evenodd" clip-rule="evenodd" d="M34.3548 23.7958L27.3914 27.8002C27.2931 27.8503 27.1872 27.8836 27.0779 27.899L27.2099 28.1462L34.9323 23.6806V23.5816L34.7343 23.252C34.7013 23.4827 34.5528 23.6804 34.3548 23.7958Z" fill="url(#paint4_linear_122_252)"/>
  </g>
  <defs>
    <linearGradient id="paint0_linear_122_252" x1="1080.21" y1="319.838" x2="320.207" y2="1515.61" gradientUnits="userSpaceOnUse">
      <stop stop-color="#41873F"/>
      <stop offset="0.3288" stop-color="#418B3D"/>
      <stop offset="0.6352" stop-color="#419637"/>
      <stop offset="0.9319" stop-color="#3FA92D"/>
      <stop offset="1" stop-color="#3FAE2A"/>
    </linearGradient>
    <linearGradient id="paint1_linear_122_252" x1="677.021" y1="986.682" x2="2582.86" y2="-50.1377" gradientUnits="userSpaceOnUse">
      <stop offset="0.1376" stop-color="#41873F"/>
      <stop offset="0.4032" stop-color="#54A044"/>
      <stop offset="0.7136" stop-color="#66B848"/>
      <stop offset="0.9081" stop-color="#6CC04A"/>
    </linearGradient>
    <linearGradient id="paint2_linear_122_252" x1="-47.043" y1="895.823" x2="1560.44" y2="895.823" gradientUnits="userSpaceOnUse">
      <stop offset="0.09192" stop-color="#6CC04A"/>
      <stop offset="0.2864" stop-color="#66B848"/>
      <stop offset="0.5968" stop-color="#54A044"/>
      <stop offset="0.8624" stop-color="#41873F"/>
    </linearGradient>
    <linearGradient id="paint3_linear_122_252" x1="-788.69" y1="269.312" x2="818.78" y2="269.312" gradientUnits="userSpaceOnUse">
      <stop offset="0.09192" stop-color="#6CC04A"/>
      <stop offset="0.2864" stop-color="#66B848"/>
      <stop offset="0.5968" stop-color="#54A044"/>
      <stop offset="0.8624" stop-color="#41873F"/>
    </linearGradient>
    <linearGradient id="paint4_linear_122_252" x1="1052.97" y1="-1009.78" x2="646.77" y2="1121.49" gradientUnits="userSpaceOnUse">
      <stop stop-color="#41873F"/>
      <stop offset="0.3288" stop-color="#418B3D"/>
      <stop offset="0.6352" stop-color="#419637"/>
      <stop offset="0.9319" stop-color="#3FA92D"/>
      <stop offset="1" stop-color="#3FAE2A"/>
    </linearGradient>
  </defs>
</svg>