<svg xmlns="http://www.w3.org/2000/svg" width="73" height="39" viewBox="0 0 73 39" fill="none">
  <path d="M36.4995 38.5265C56.6576 38.5265 72.999 30.0441 72.999 19.5804C72.999 9.11675 56.6576 0.634277 36.4995 0.634277C16.3414 0.634277 0 9.11675 0 19.5804C0 30.0441 16.3414 38.5265 36.4995 38.5265Z" fill="#8993BE"/>
  <path fill-rule="evenodd" clip-rule="evenodd" d="M10.2498 30.7982L14.2499 10.6055H23.4994C27.4992 10.8548 29.4992 12.849 29.4992 16.3393C29.4992 22.3223 24.7495 25.8124 20.4993 25.563H15.9998L14.9998 30.7982H10.2498ZM16.9996 21.8238L18.2497 14.3449H21.4996C23.2496 14.3449 24.4994 15.0928 24.4994 16.5884C24.2496 20.8266 22.2495 21.5745 19.9997 21.8238H16.9996ZM28.5699 25.563L32.5698 5.37061H37.3198L36.3198 10.6055H40.8195C44.8196 10.8548 46.3195 12.849 45.8196 15.3421L44.0697 25.563H39.0698L40.8198 16.3393C41.0696 15.0928 41.0696 14.3449 39.3199 14.3449H35.5698L33.32 25.563H28.5699ZM43.7494 30.7982L47.7493 10.6055H56.999C60.9991 10.8548 62.9992 12.849 62.9992 16.3393C62.9992 22.3223 58.2491 25.8124 53.9992 25.563H49.4992L48.4992 30.7982H43.7494ZM50.499 21.8238L51.7491 14.3449H54.9993C56.7492 14.3449 57.9991 15.0928 57.9991 16.5884C57.7493 20.8266 55.7492 21.5745 53.4994 21.8238H50.4993H50.499Z" fill="#232531"/>
</svg>