<svg xmlns="http://www.w3.org/2000/svg" width="73" height="73" viewBox="0 0 73 73" fill="none">
  <path d="M64.7279 14.0475C60.3599 8.39125 54.4126 4.15738 47.6382 1.88136C40.8638 -0.394658 33.5666 -0.610592 26.6695 1.26087C19.7724 3.13233 13.5851 7.00713 8.89032 12.3952C4.1955 17.7833 1.20397 24.4426 0.294073 31.531C-0.61582 38.6193 0.596796 45.8183 3.77856 52.2174C6.96032 58.6166 11.9683 63.9285 18.1692 67.4812C24.37 71.034 31.4852 72.6681 38.6148 72.1769C45.7444 71.6856 52.5682 69.0911 58.2232 64.7215C74.008 52.5227 76.9222 29.838 64.7279 14.0475Z" fill="#FF6C37"/>
  <path d="M48.3176 23.0216L33.0827 38.3773L28.7774 33.9512C43.7718 18.9568 45.2758 20.3117 48.3176 23.0216Z" fill="white"/>
  <path d="M33.0827 38.7969C32.9478 38.7936 32.819 38.74 32.7214 38.6467L28.3857 34.311C28.2881 34.2099 28.2335 34.0749 28.2335 33.9344C28.2335 33.7939 28.2881 33.6589 28.3857 33.5579C43.169 18.7746 45.1867 19.4667 48.679 22.6282C48.7374 22.675 48.7842 22.7348 48.8156 22.8028C48.8469 22.8708 48.862 22.9451 48.8596 23.02C48.8822 23.1668 48.8258 23.3169 48.7095 23.4118L33.4745 38.6479C33.3677 38.7458 33.2277 38.7983 33.0827 38.7969ZM29.5295 33.9497L33.0827 37.5029L47.5352 23.0505C47.0362 22.4251 46.3242 22.0057 45.5353 21.8723C44.7464 21.739 43.9361 21.9012 43.2593 22.3279C40.6398 23.5021 36.4249 27.0847 29.5295 33.9497Z" fill="#FF6C37"/>
  <path d="M37.4489 42.6231L33.2938 38.3777L48.5287 23.3223C52.624 27.3272 46.5415 34.0126 37.4489 42.6231Z" fill="white"/>
  <path d="M37.4489 43.1648C37.3156 43.1542 37.1891 43.1016 37.0876 43.0146L32.8421 38.8595C32.7785 38.7051 32.7785 38.5318 32.8421 38.3774C32.797 38.2507 32.797 38.1123 32.8421 37.9856L48.0771 22.7507C48.183 22.6511 48.3229 22.5957 48.4683 22.5957C48.6137 22.5957 48.7536 22.6511 48.8595 22.7507C49.3529 23.2048 49.7427 23.7598 50.0024 24.378C50.2621 24.9962 50.3857 25.6631 50.3646 26.3333C50.3646 30.3981 45.7274 35.5163 37.8395 42.9841C37.7342 43.0884 37.5966 43.1524 37.4489 43.1648ZM34.0762 38.3774L37.4782 41.7783C43.4997 36.0876 49.2513 30.2163 49.2807 26.2418C49.3134 25.3993 49.0349 24.5742 48.4982 23.9238L34.0762 38.3774Z" fill="#FF6C37"/>
  <path d="M28.8971 34.0413L31.9084 37.0526C31.9276 37.0695 31.943 37.0904 31.9536 37.1138C31.9641 37.1371 31.9696 37.1625 31.9696 37.1881C31.9696 37.2137 31.9641 37.2391 31.9536 37.2624C31.943 37.2858 31.9276 37.3066 31.9084 37.3236L25.555 38.6785C25.4267 38.7062 25.2929 38.6912 25.174 38.6358C25.0551 38.5804 24.9575 38.4877 24.8961 38.3717C24.8347 38.2558 24.8129 38.1229 24.834 37.9934C24.8551 37.8639 24.918 37.7449 25.013 37.6544L28.7165 33.9814C28.7165 33.9814 28.8373 33.9814 28.8971 34.0413Z" fill="white"/>
  <path d="M25.4047 39.2805C25.204 39.278 25.0072 39.224 24.8333 39.1238C24.6593 39.0236 24.514 38.8804 24.4111 38.708C24.2954 38.4897 24.2534 38.2397 24.2914 37.9955C24.3295 37.7512 24.4455 37.5259 24.6223 37.3531L28.2952 33.6497C28.4277 33.5313 28.5991 33.4658 28.7768 33.4658C28.9544 33.4658 29.1259 33.5313 29.2583 33.6497L32.2697 36.661C32.448 36.8303 32.5181 37.0866 32.4503 37.3238C32.3826 37.5609 32.1838 37.7494 31.9388 37.8059L25.5854 39.1608L25.4047 39.2805ZM28.7773 34.7042L25.3754 38.1062L31.0062 36.9015L28.7773 34.7042Z" fill="#FF6C37"/>
  <path d="M56.4178 14.56C54.2386 12.4576 50.8152 12.3695 48.5299 14.3534C46.2446 16.3372 45.8539 19.7426 47.6334 22.1927C49.4129 24.6428 52.7674 25.3293 55.3643 23.7734L51.2691 19.6782L56.4178 14.56Z" fill="white"/>
  <path d="M52.353 25.1579C51.101 25.1418 49.8814 24.7577 48.8462 24.0534C47.811 23.349 47.006 22.3556 46.5314 21.197C46.0571 20.0392 45.9327 18.7678 46.1735 17.54C46.4143 16.3122 47.0098 15.182 47.8863 14.2892C49.0918 13.1058 50.7135 12.4429 52.4027 12.4429C54.0919 12.4429 55.7136 13.1058 56.9191 14.2892C57.0343 14.3863 57.0997 14.5297 57.0997 14.681C57.0995 14.7554 57.0832 14.8289 57.052 14.8965C57.0209 14.9641 56.9755 15.0242 56.9191 15.0728L52.0414 19.6795L55.7448 23.3231C55.8048 23.3804 55.8499 23.4515 55.8761 23.5302C55.9022 23.609 55.9087 23.6929 55.895 23.7747C55.8861 23.8537 55.8599 23.9297 55.8183 23.9974C55.7768 24.0651 55.7208 24.1228 55.6545 24.1665C54.6596 24.7884 53.5158 25.1316 52.3429 25.1601L52.353 25.1579ZM52.353 13.4751C50.2077 13.4864 48.2883 14.7769 47.4832 16.7495C46.6782 18.722 47.1163 20.9926 48.6202 22.5079C49.3683 23.2603 50.3261 23.7692 51.3683 23.9681C52.4105 24.1669 53.4885 24.0464 54.461 23.6223L50.9078 20.069C50.8513 20.0238 50.8057 19.9666 50.7743 19.9014C50.743 19.8362 50.7267 19.7648 50.7267 19.6925C50.7267 19.6201 50.743 19.5487 50.7743 19.4836C50.8057 19.4184 50.8513 19.3611 50.9078 19.3159L55.6048 14.5884C54.6711 13.8728 53.5294 13.4826 52.353 13.4751Z" fill="#FF6C37"/>
  <path d="M56.5081 14.6504L51.3594 19.7686L55.4546 23.8638C55.8668 23.6272 56.2506 23.3442 56.5984 23.0204C57.6717 21.8859 58.2623 20.3788 58.2454 18.8171C58.2286 17.2555 57.6057 15.7614 56.5081 14.6504Z" fill="white"/>
  <path d="M55.3631 24.3152C55.2955 24.3188 55.2279 24.3072 55.1654 24.2812C55.1028 24.2552 55.0469 24.2155 55.0018 24.165L50.9066 20.0698C50.8501 20.0246 50.8045 19.9673 50.7732 19.9021C50.7418 19.8369 50.7255 19.7655 50.7255 19.6932C50.7255 19.6209 50.7418 19.5495 50.7732 19.4843C50.8045 19.4191 50.8501 19.3618 50.9066 19.3166L56.0248 14.2888C56.0742 14.2142 56.1413 14.1531 56.2201 14.1108C56.2989 14.0685 56.387 14.0464 56.4764 14.0464C56.5659 14.0464 56.6539 14.0685 56.7327 14.1108C56.8115 14.1531 56.8786 14.2142 56.9281 14.2888C57.5289 14.8775 58.0063 15.5802 58.3321 16.3557C58.658 17.1312 58.8259 17.964 58.8259 18.8052C58.8259 19.6464 58.658 20.4791 58.3321 21.2546C58.0063 22.0301 57.5289 22.7328 56.9281 23.3216C56.5736 23.6975 56.1681 24.0217 55.7233 24.2847C55.6113 24.3411 55.483 24.352 55.3631 24.3152ZM52.0515 19.6791L55.4535 23.0811C55.6875 22.917 55.909 22.7359 56.1162 22.5391C57.1163 21.5417 57.6796 20.1882 57.6823 18.7758C57.6846 17.5118 57.2239 16.2908 56.3872 15.3433L52.0515 19.6791Z" fill="#FF6C37"/>
  <path d="M48.9499 23.6537C48.5421 23.2708 48.0037 23.0576 47.4442 23.0576C46.8848 23.0576 46.3464 23.2708 45.9386 23.6537L32.3002 37.2616L34.5584 39.5503L48.9804 26.9044C49.2003 26.6936 49.3748 26.4401 49.493 26.1593C49.6113 25.8785 49.6708 25.5766 49.6679 25.2719C49.6651 24.9673 49.5999 24.6665 49.4764 24.388C49.3529 24.1095 49.1737 23.8604 48.9499 23.6537Z" fill="white"/>
  <path d="M34.4376 40.0937C34.3027 40.0904 34.1738 40.0369 34.0763 39.9436L31.7876 37.6549C31.69 37.5538 31.6354 37.4188 31.6354 37.2783C31.6354 37.1378 31.69 37.0028 31.7876 36.9018L45.4271 23.3221C45.82 22.9297 46.3217 22.6644 46.8671 22.5606C47.4126 22.4568 47.9767 22.5192 48.4862 22.7399C48.9957 22.9605 49.4272 23.3291 49.7247 23.7979C50.0222 24.2668 50.172 24.8142 50.1546 25.3692C50.139 25.7458 50.0484 26.1156 49.888 26.4569C49.7277 26.7981 49.5009 27.1039 49.2209 27.3564L34.7989 40.0023C34.694 40.0765 34.5651 40.1099 34.4376 40.0937ZM32.8422 37.262L34.3473 38.7975L48.4983 26.4824C48.8483 26.1776 49.0572 25.7418 49.0707 25.2777C49.0843 24.8136 48.9014 24.3597 48.5592 24.0436C48.2433 23.729 47.8156 23.5523 47.3697 23.5523C46.9239 23.5523 46.4962 23.729 46.1802 24.0436L32.8422 37.262Z" fill="#FF6C37"/>
  <path d="M21.7318 52.7689C21.6933 52.8212 21.6725 52.8845 21.6725 52.9495C21.6725 53.0145 21.6933 53.0778 21.7318 53.1302L22.3336 55.7497C22.3578 55.9038 22.3349 56.0617 22.268 56.2027C22.2012 56.3436 22.0934 56.4612 21.9588 56.5401C21.8246 56.6185 21.6691 56.6524 21.5144 56.6368C21.3598 56.6211 21.2141 56.5568 21.0984 56.4531L16.9738 52.4787L29.8309 39.52H34.2874L37.2987 42.5313C32.6013 46.6383 27.3637 50.0828 21.7318 52.7689Z" fill="white"/>
  <path d="M21.4608 57.195C21.1198 57.1882 20.7834 57.0482 20.5575 56.8032L16.6136 52.8593C16.5571 52.8141 16.5115 52.7568 16.4802 52.6916C16.4488 52.6264 16.4325 52.555 16.4325 52.4827C16.4325 52.4104 16.4488 52.339 16.4802 52.2738C16.5115 52.2086 16.5571 52.1513 16.6136 52.1061L29.5598 39.1294C29.6323 39.0524 29.7271 38.9999 29.8308 38.9792H34.3167C34.4336 38.9379 34.5611 38.9379 34.678 38.9792L37.6894 41.9905C37.7466 42.0433 37.7902 42.1093 37.8163 42.1826C37.8425 42.256 37.8505 42.3346 37.8395 42.4117C37.8416 42.4865 37.8264 42.5608 37.7951 42.6288C37.7638 42.6967 37.7171 42.7565 37.6589 42.8035L37.4184 43.0146C32.702 46.9465 27.5132 50.2741 21.9723 52.9202L22.5447 55.3591C22.589 55.5472 22.5907 55.7429 22.5497 55.9317C22.5087 56.1206 22.4261 56.298 22.3078 56.4508C22.1896 56.6037 22.0387 56.7283 21.8662 56.8154C21.6937 56.9025 21.5039 56.9501 21.3106 56.9545L21.4608 57.195ZM17.7879 52.4675L21.34 56.0501C21.3731 56.0796 21.4159 56.0959 21.4602 56.0959C21.5046 56.0959 21.5474 56.0796 21.5805 56.0501C21.6026 56.0193 21.6146 55.9824 21.6146 55.9445C21.6146 55.9066 21.6026 55.8697 21.5805 55.8389L20.9787 53.2194C20.9313 53.0314 20.9503 52.8328 21.0326 52.6573C21.115 52.4817 21.2555 52.3401 21.4303 52.2563C26.8223 49.6455 31.8773 46.3899 36.4846 42.5607L34.0153 40.0914H29.981L17.7879 52.4675Z" fill="#FF6C37"/>
  <path d="M13.8734 55.5694L16.8847 52.5581L21.5219 57.1953L14.1455 56.6838C14.0188 56.6739 13.8986 56.6242 13.8018 56.5419C13.7051 56.4596 13.6368 56.3488 13.6068 56.2253C13.5767 56.1019 13.5864 55.9721 13.6345 55.8545C13.6826 55.737 13.7666 55.6376 13.8745 55.5705L13.8734 55.5694Z" fill="white"/>
  <path d="M21.6111 57.6468L14.264 57.1353C13.8282 57.0946 13.4533 56.7966 13.2998 56.398C13.1462 55.9994 13.2399 55.5263 13.5414 55.2079L16.5527 52.1966C16.6537 52.099 16.7887 52.0444 16.9292 52.0444C17.0697 52.0444 17.2047 52.099 17.3058 52.1966L21.9125 56.8033C21.9763 56.8907 22.0107 56.9961 22.0107 57.1042C22.0107 57.2124 21.9763 57.3178 21.9125 57.4051C21.8429 57.5178 21.7363 57.6039 21.6111 57.6468ZM14.264 55.961L20.2855 56.3528L16.9738 53.2512L14.264 55.961Z" fill="#FF6C37"/>
  <path d="M34.7086 39.8837L28.6261 40.8175L32.1489 37.3252L34.7086 39.8837Z" fill="white"/>
  <path d="M28.6261 41.3872C28.525 41.3898 28.4254 41.3627 28.3397 41.3091C28.2539 41.2554 28.1859 41.1778 28.144 41.0857C28.0799 40.9985 28.0453 40.8931 28.0453 40.7848C28.0453 40.6766 28.0799 40.5711 28.144 40.4839L31.6363 36.9611C31.7422 36.8616 31.8822 36.8062 32.0275 36.8062C32.1729 36.8062 32.3128 36.8616 32.4188 36.9611L34.9796 39.5197C35.0307 39.6008 35.0579 39.6947 35.0579 39.7907C35.0579 39.8866 35.0307 39.9805 34.9796 40.0616C34.9545 40.1605 34.9014 40.2501 34.8267 40.3195C34.752 40.389 34.6588 40.4355 34.5584 40.4534L28.5369 41.3872H28.6261ZM32.1489 38.1049L30.1922 40.0616L33.5648 39.5502L32.1489 38.1049Z" fill="#FF6C37"/>
  <path d="M34.7085 39.8814L30.4631 40.4234C30.3495 40.4492 30.2306 40.4377 30.1241 40.3906C30.0175 40.3435 29.929 40.2633 29.8716 40.1619C29.8141 40.0606 29.7909 39.9434 29.8054 39.8278C29.8198 39.7122 29.8711 39.6043 29.9516 39.5201L32.15 37.3218L34.7085 39.8814Z" fill="white"/>
  <path d="M30.3423 40.9966C30.1455 40.9948 29.9528 40.9408 29.7836 40.8403C29.6144 40.7397 29.4749 40.5962 29.3792 40.4242C29.2642 40.2181 29.2197 39.9801 29.2523 39.7463C29.2849 39.5126 29.3929 39.2959 29.5599 39.1291L31.7582 36.9308C31.8642 36.8312 32.0041 36.7758 32.1495 36.7758C32.2948 36.7758 32.4347 36.8312 32.5407 36.9308L35.1004 39.4904C35.1765 39.5626 35.23 39.6552 35.2546 39.7572C35.2791 39.8591 35.2735 39.966 35.2385 40.0648C35.2034 40.1637 35.1405 40.2502 35.0573 40.314C34.974 40.3778 34.8741 40.4161 34.7695 40.4242L30.5546 40.9662L30.3423 40.9966ZM30.3423 39.8822L33.5343 39.4904L32.1195 38.0757L30.313 39.8822H30.3423ZM56.5374 18.1132C56.4807 18.0182 56.3911 17.9473 56.2856 17.914C56.18 17.8807 56.066 17.8873 55.965 17.9325C55.9151 17.9578 55.8709 17.9928 55.8348 18.0355C55.7987 18.0781 55.7716 18.1276 55.755 18.1809C55.7214 18.2886 55.732 18.4051 55.7843 18.505C55.9955 18.9487 55.9367 19.4738 55.6341 19.8599C55.5966 19.8971 55.5671 19.9417 55.5477 19.9909C55.5282 20.0401 55.5192 20.0927 55.5212 20.1456C55.5223 20.2515 55.5625 20.3532 55.6341 20.4312C55.7114 20.4617 55.7974 20.4617 55.8746 20.4312C55.9448 20.4489 56.0184 20.4469 56.0874 20.4256C56.1565 20.4043 56.2184 20.3645 56.2664 20.3104C56.5144 20.0069 56.6714 19.6394 56.7193 19.2504C56.7673 18.8614 56.7042 18.4679 56.5374 18.1132Z" fill="#FF6C37"/>
</svg>