<svg xmlns="http://www.w3.org/2000/svg" width="73" height="73" viewBox="0 0 73 73" fill="none">
  <path d="M0 0H73V73H0V0Z" fill="#222222"/>
  <path d="M36.4434 42.5601C39.8148 42.5601 42.5479 39.827 42.5479 36.4556C42.5479 33.0842 39.8148 30.3511 36.4434 30.3511C33.072 30.3511 30.3389 33.0842 30.3389 36.4556C30.3389 39.827 33.072 42.5601 36.4434 42.5601Z" fill="#00D8FF"/>
  <path d="M36.4435 24.0449C44.638 24.0449 52.2515 25.221 57.9909 27.196C64.9064 29.5765 69.159 33.1856 69.159 36.4537C69.159 39.859 64.6522 43.694 57.2263 46.1531C51.612 48.0131 44.2225 48.9855 36.4435 48.9855C28.4669 48.9855 20.916 48.0736 15.2371 46.1329C8.0533 43.6778 3.72607 39.7944 3.72607 36.4537C3.72607 33.2118 7.78701 29.631 14.6057 27.2545C20.3672 25.2473 28.1683 24.0449 36.4435 24.0449Z" stroke="#00D8FF" stroke-width="2.5" stroke-miterlimit="10"/>
  <path d="M25.6406 30.2867C29.7338 23.1876 34.5573 17.18 39.1367 13.1957C44.6542 8.39437 49.9053 6.5142 52.7357 8.14624C55.6851 9.84687 56.7563 15.6669 55.1767 23.3309C53.9824 29.1247 51.1339 36.0099 47.2465 42.7499C43.2622 49.6594 38.6989 55.7457 34.1821 59.6957C28.4669 64.6927 22.9394 66.5002 20.0465 64.8319C17.2383 63.212 16.1651 57.9063 17.5107 50.8113C18.6484 44.8117 21.505 37.4544 25.6406 30.2867Z" stroke="#00D8FF" stroke-width="2.5" stroke-miterlimit="10"/>
  <path d="M25.6506 42.764C21.5453 35.671 18.7493 28.4932 17.5832 22.536C16.1792 15.3583 17.1717 9.86903 20 8.23296C22.9474 6.52628 28.5234 8.5053 34.3737 13.7C38.7977 17.6278 43.3388 23.5346 47.2363 30.2685C51.2327 37.1719 54.2285 44.1641 55.3925 50.0487C56.8672 57.4968 55.6729 63.1877 52.782 64.8601C49.9759 66.4841 44.8438 64.7653 39.3687 60.0548C34.7449 56.0745 29.7963 49.9256 25.6506 42.764Z" stroke="#00D8FF" stroke-width="2.5" stroke-miterlimit="10"/>
</svg>