<svg xmlns="http://www.w3.org/2000/svg" width="75" height="17" viewBox="0 0 75 17" fill="none">
  <path d="M37.4151 4.25C34.4864 4.25 32.3748 6.1625 32.3748 9.03125C32.3748 11.9 34.7517 13.8125 37.6804 13.8125C39.4498 13.8125 41.0097 13.1112 41.9753 11.9292L39.9459 10.7552C39.41 11.3422 38.5956 11.6848 37.6804 11.6848C36.4097 11.6848 35.33 11.0208 34.9294 9.95828H42.3626C42.4209 9.66078 42.4554 9.35266 42.4554 9.02859C42.4554 6.1625 40.3438 4.25 37.4151 4.25ZM34.9056 8.10156C35.2372 7.04172 36.1444 6.375 37.4125 6.375C38.6831 6.375 39.5904 7.04172 39.9194 8.10156H34.9056ZM65.9805 4.25C63.0518 4.25 60.9402 6.1625 60.9402 9.03125C60.9402 11.9 63.3171 13.8125 66.2458 13.8125C68.0152 13.8125 69.575 13.1112 70.5406 11.9292L68.5112 10.7552C67.9754 11.3422 67.161 11.6848 66.2458 11.6848C64.9751 11.6848 63.8954 11.0208 63.4948 9.95828H70.9279C70.9863 9.66078 71.0208 9.35266 71.0208 9.02859C71.0208 6.1625 68.9092 4.25 65.9805 4.25ZM63.4736 8.10156C63.8052 7.04172 64.7124 6.375 65.9805 6.375C67.2512 6.375 68.1584 7.04172 68.4874 8.10156H63.4736ZM53.1197 9.03125C53.1197 10.625 54.1596 11.6875 55.7725 11.6875C56.8654 11.6875 57.6852 11.1908 58.107 10.3806L60.1443 11.5573C59.3007 12.9652 57.7197 13.8125 55.7725 13.8125C52.8411 13.8125 50.7322 11.9 50.7322 9.03125C50.7322 6.1625 52.8438 4.25 55.7725 4.25C57.7197 4.25 59.2981 5.09734 60.1443 6.50516L58.107 7.68188C57.6852 6.87172 56.8654 6.375 55.7725 6.375C54.1622 6.375 53.1197 7.4375 53.1197 9.03125ZM75 1.32812V13.5469H72.6125V1.32812H75ZM9.8021 0L19.6042 17H0L9.8021 0ZM34.3087 1.32812L26.9578 14.0781L19.6069 1.32812H22.3631L26.9578 9.29688L31.5524 1.32812H34.3087ZM49.9363 4.51562V7.08953C49.6711 7.0125 49.3899 6.95938 49.0874 6.95938C47.5462 6.95938 46.4346 8.02188 46.4346 9.61563V13.5469H44.0471V4.51562H46.4346V6.95938C46.4346 5.61 48.0024 4.51562 49.9363 4.51562Z" fill="black"/>
</svg>