<svg xmlns="http://www.w3.org/2000/svg" width="74" height="74" viewBox="0 0 74 74" fill="none">
  <path d="M72.9781 36.4085L72.9263 36.3872L73.0756 36.5364C73.1395 36.5364 72.9781 36.4085 72.9781 36.4085ZM70.8796 38.1263V38.2603L71.1659 38.3821L70.8796 38.1263Z" fill="black"/>
  <path d="M45.4816 49.5718V49.5844C45.5226 49.6034 45.5037 49.5876 45.4816 49.5718Z" fill="url(#paint0_linear_122_279)"/>
  <path d="M8.35442 45.6249L16.8306 42.0187L16.925 41.9913L1.62646 38.7964L8.35442 45.6249Z" fill="url(#paint1_linear_122_279)"/>
  <path d="M20.9727 37.5016C21.1402 37.5016 21.3077 37.5107 21.4722 37.526L21.4539 37.5229C21.8088 37.476 22.1683 37.477 22.5229 37.526L22.5016 37.5229L30.8499 24.533C30.1978 23.8578 29.8331 22.9559 29.8326 22.0172C29.8001 21.7369 29.8011 21.4537 29.8357 21.1736L29.8326 21.1918L19.6965 16.5015L11.5401 24.4447L20.4945 37.5229C20.6376 37.5077 20.8052 37.5016 20.9727 37.5016Z" fill="url(#paint2_linear_122_279)"/>
  <path d="M49.2155 25.6235L50.9668 14.7748L44.4642 7.94629L36.8164 19.7179V19.8794C37.1484 20.3788 37.3769 20.9728 37.45 21.6154L37.453 21.6337L48.1282 26.1626C48.4358 25.9251 48.7982 25.7393 49.1911 25.6266L49.2155 25.6235Z" fill="url(#paint3_linear_122_279)"/>
  <path d="M71.0472 38.391L52.977 30.6641C52.4714 31.3341 51.7161 31.791 50.8542 31.9037L50.839 31.9067L48.8623 44.0012C49.4288 44.5768 49.7851 45.3657 49.7882 46.2337L60.8776 48.5637L71.0441 38.4489L71.0472 38.391Z" fill="url(#paint4_linear_122_279)"/>
  <path d="M61.8065 25.2061L54.0277 28.398L73.0969 36.5117L61.8065 25.2061Z" fill="url(#paint5_linear_122_279)"/>
  <path d="M17.7199 39.8532H17.726C17.9248 39.4807 18.1727 39.1365 18.4631 38.8299L18.457 38.8329L10.0082 26.1963L0 35.9273L17.7199 39.8532Z" fill="url(#paint6_linear_122_279)"/>
  <path d="M47.0439 28.7483C47.0296 28.5851 47.0306 28.4209 47.0469 28.2579V28.2701L47.05 28.2427C47.05 28.2074 47.0382 28.1731 47.0165 28.1452L37.0387 23.8965C36.3748 24.9016 35.2509 25.5594 33.9717 25.5594L33.8468 25.5564H33.2468L24.993 38.3209L47.0439 28.7483Z" fill="url(#paint7_linear_122_279)"/>
  <path d="M10.1697 47.1899L13.9311 50.924L18.2012 44.2874L17.9149 43.998L10.1697 47.1899Z" fill="url(#paint8_linear_122_279)"/>
  <path d="M49.3709 48.4663C49.0085 48.9293 48.5334 49.2886 47.9882 49.5079L47.9669 49.5171L45.643 63.9415L59.1872 50.5069C59.1872 50.5069 59.1568 50.5678 59.1233 50.5678V50.4765L49.3709 48.4663Z" fill="url(#paint9_linear_122_279)"/>
  <path d="M51.6978 25.9096C52.0572 26.0923 52.3618 26.3269 52.6207 26.6101L52.6237 26.6131L59.7933 23.4182L53.1019 16.7847L51.6034 25.8121L51.6978 25.9096Z" fill="url(#paint10_linear_122_279)"/>
  <path d="M36.2409 73.0969L39.8744 69.4908L23.3941 45.5942C22.8916 45.8318 22.2977 45.9719 21.6763 45.975H21.6581C21.1738 45.975 20.7048 45.8927 20.2723 45.7435L20.3027 45.7526L15.588 52.6146L36.2409 73.0969Z" fill="url(#paint11_linear_122_279)"/>
  <path d="M25.5016 40.8093C25.6052 40.9677 25.7088 41.1566 25.8032 41.3515L25.8184 41.385L43.7637 45.0855C44.0209 44.6369 44.383 44.2574 44.819 43.9794C45.2551 43.7014 45.752 43.5334 46.2673 43.4896H46.2794L48.2256 31.59L47.8145 31.2397L25.5016 40.8093Z" fill="url(#paint12_linear_122_279)"/>
  <path d="M36.3992 0L21.4205 14.7077C21.4205 14.7077 21.39 14.8661 21.4205 14.8996L31.3038 19.1118C32.0199 18.5188 32.9301 18.2117 33.8591 18.2499H33.853C34.2855 18.2529 34.7058 18.3229 35.0957 18.4509L35.0652 18.4417L42.7769 6.38075L36.3992 0Z" fill="url(#paint13_linear_122_279)"/>
  <path d="M43.6082 47.3393L43.6021 47.318L25.4376 43.584L25.1817 43.9982L41.662 67.8674L42.6488 66.8775L45.4539 49.5505L45.4844 49.5718V49.4866C45.0266 49.2986 44.6188 49.0067 44.2932 48.6341C43.9676 48.2614 43.7331 47.8182 43.6082 47.3393Z" fill="url(#paint14_linear_122_279)"/>
  <defs>
    <linearGradient id="paint0_linear_122_279" x1="45.4942" y1="4.87569" x2="45.4942" y2="70.0295" gradientUnits="userSpaceOnUse">
      <stop stop-color="#39C4B6"/>
      <stop offset="1" stop-color="#529AC3"/>
    </linearGradient>
    <linearGradient id="paint1_linear_122_279" x1="9.27726" y1="6.47235" x2="9.27726" y2="69.2991" gradientUnits="userSpaceOnUse">
      <stop stop-color="#39C4B6"/>
      <stop offset="1" stop-color="#529AC3"/>
    </linearGradient>
    <linearGradient id="paint2_linear_122_279" x1="21.195" y1="6.47197" x2="21.195" y2="69.2987" gradientUnits="userSpaceOnUse">
      <stop stop-color="#39C4B6"/>
      <stop offset="1" stop-color="#529AC3"/>
    </linearGradient>
    <linearGradient id="paint3_linear_122_279" x1="43.8916" y1="6.47217" x2="43.8916" y2="69.2989" gradientUnits="userSpaceOnUse">
      <stop stop-color="#39C4B6"/>
      <stop offset="1" stop-color="#529AC3"/>
    </linearGradient>
    <linearGradient id="paint4_linear_122_279" x1="59.9547" y1="6.47204" x2="59.9547" y2="69.2988" gradientUnits="userSpaceOnUse">
      <stop stop-color="#39C4B6"/>
      <stop offset="1" stop-color="#529AC3"/>
    </linearGradient>
    <linearGradient id="paint5_linear_122_279" x1="63.5608" y1="6.47194" x2="63.5608" y2="69.2987" gradientUnits="userSpaceOnUse">
      <stop stop-color="#39C4B6"/>
      <stop offset="1" stop-color="#529AC3"/>
    </linearGradient>
    <linearGradient id="paint6_linear_122_279" x1="9.23152" y1="6.47232" x2="9.23152" y2="69.2991" gradientUnits="userSpaceOnUse">
      <stop stop-color="#39C4B6"/>
      <stop offset="1" stop-color="#529AC3"/>
    </linearGradient>
    <linearGradient id="paint7_linear_122_279" x1="36.0184" y1="6.47202" x2="36.0184" y2="69.2988" gradientUnits="userSpaceOnUse">
      <stop stop-color="#39C4B6"/>
      <stop offset="1" stop-color="#529AC3"/>
    </linearGradient>
    <linearGradient id="paint8_linear_122_279" x1="14.1839" y1="6.47196" x2="14.1839" y2="69.2987" gradientUnits="userSpaceOnUse">
      <stop stop-color="#39C4B6"/>
      <stop offset="1" stop-color="#529AC3"/>
    </linearGradient>
    <linearGradient id="paint9_linear_122_279" x1="52.4166" y1="6.47216" x2="52.4166" y2="69.2989" gradientUnits="userSpaceOnUse">
      <stop stop-color="#39C4B6"/>
      <stop offset="1" stop-color="#529AC3"/>
    </linearGradient>
    <linearGradient id="paint10_linear_122_279" x1="55.6999" y1="6.47192" x2="55.6999" y2="69.2987" gradientUnits="userSpaceOnUse">
      <stop stop-color="#39C4B6"/>
      <stop offset="1" stop-color="#529AC3"/>
    </linearGradient>
    <linearGradient id="paint11_linear_122_279" x1="27.7312" y1="6.47219" x2="27.7312" y2="69.2989" gradientUnits="userSpaceOnUse">
      <stop stop-color="#39C4B6"/>
      <stop offset="1" stop-color="#529AC3"/>
    </linearGradient>
    <linearGradient id="paint12_linear_122_279" x1="36.8621" y1="6.47209" x2="36.8621" y2="69.2989" gradientUnits="userSpaceOnUse">
      <stop stop-color="#39C4B6"/>
      <stop offset="1" stop-color="#529AC3"/>
    </linearGradient>
    <linearGradient id="paint13_linear_122_279" x1="32.0895" y1="6.47212" x2="32.0895" y2="69.2989" gradientUnits="userSpaceOnUse">
      <stop stop-color="#39C4B6"/>
      <stop offset="1" stop-color="#529AC3"/>
    </linearGradient>
    <linearGradient id="paint14_linear_122_279" x1="35.33" y1="6.47209" x2="35.33" y2="69.2989" gradientUnits="userSpaceOnUse">
      <stop stop-color="#39C4B6"/>
      <stop offset="1" stop-color="#529AC3"/>
    </linearGradient>
  </defs>
</svg>